# xmcd
#
# Track frame offsets:
#	150
#	10493
#	19613
#	31433
#	46433
#	56461
#	67291
#	77701
#	92529
#	101274
#
# Disc length: 1519 seconds
#
# Revision: 1
# Processed by: cddbd v1.5.2PL0 Copyright (c) Steve Scherf et al.
# Submitted via: audiograbber 1.83.01
#
DISCID=7805ed0a
DTITLE=Jim Reeves - Good 'N' Country
DYEAR=1963
DGENRE=Country
TTITLE0=Don't Let Me Cross Over
TTITLE1=There's A Heartache Folling Me
TTITLE2=The Talking Walls
TTITLE3=Little Ole Dime
TTITLE4=The World You Left Behind
TTITLE5=I've Enjoyed As Much Of This As I Can Stand
TTITLE6=Lonely Music
TTITLE7=Bottle, Take Effect
TTITLE8=You Kept Me Awake Last Night
TTITLE9=Before I Died
EXTD=
EXTT0=
EXTT1=
EXTT2=
EXTT3=
EXTT4=
EXTT5=
EXTT6=
EXTT7=
EXTT8=
EXTT9=
PLAYORDER=
